HIERARCHY
ROOT newVegas:Hips
{
	OFFSET 0.000000 96.479958 0.000000
	CHANNELS 6 Xposition Yposition Zposition Xrotation Yrotation Zrotation
	JOINT newVegas:Pelvis
	{
		OFFSET 0.000000 0.000000 0.000000
		CHANNELS 3 Xrotation Yrotation Zrotation
		JOINT newVegas:LeftUpLeg
		{
			OFFSET 18.735201 -5.666702 -4.541200
			CHANNELS 3 Xrotation Yrotation Zrotation
			JOINT newVegas:LeftLeg
			{
				OFFSET -0.021200 -31.938179 0.493100
				CHANNELS 3 Xrotation Yrotation Zrotation
				JOINT newVegas:LeftFoot
				{
					OFFSET 0.021200 -31.938179 -4.336299
					CHANNELS 3 Xrotation Yrotation Zrotation
					JOINT newVegas:LeftToeBase
					{
						OFFSET 0.943001 -26.722000 15.023500
						CHANNELS 3 Xrotation Yrotation Zrotation
						End Site
						{
							OFFSET 0.000000 30.670183 0.000000
						}
					}
				}
				JOINT newVegas:Left_PantLeg
				{
					OFFSET 0.663870 -9.044666 -1.108900
					CHANNELS 3 Xrotation Yrotation Zrotation
					End Site
					{
						OFFSET 1.415995 20.635357 0.000000
					}
				}
			}
		}
		JOINT newVegas:RightUpLeg
		{
			OFFSET -18.735201 -5.666702 -4.541200
			CHANNELS 3 Xrotation Yrotation Zrotation
			JOINT newVegas:RightLeg
			{
				OFFSET 0.018946 -31.938133 0.493100
				CHANNELS 3 Xrotation Yrotation Zrotation
				JOINT newVegas:RightFoot
				{
					OFFSET -0.018946 -31.938126 -4.336299
					CHANNELS 3 Xrotation Yrotation Zrotation
					JOINT newVegas:RightToeBase
					{
						OFFSET -0.943001 -26.722004 15.023500
						CHANNELS 3 Xrotation Yrotation Zrotation
						End Site
						{
							OFFSET 0.000000 30.670187 0.000000
						}
					}
				}
				JOINT newVegas:Right_PantLeg
				{
					OFFSET -0.661674 -9.044716 -1.108900
					CHANNELS 3 Xrotation Yrotation Zrotation
					End Site
					{
						OFFSET -1.415958 20.635269 0.000000
					}
				}
			}
		}
	}
	JOINT newVegas:Spine
	{
		OFFSET 0.000000 10.199997 -0.299500
		CHANNELS 3 Xrotation Yrotation Zrotation
		JOINT newVegas:Spine1
		{
			OFFSET 0.000000 11.900002 -1.516600
			CHANNELS 3 Xrotation Yrotation Zrotation
			JOINT newVegas:Spine2
			{
				OFFSET 0.000000 13.600006 -2.842500
				CHANNELS 3 Xrotation Yrotation Zrotation
				JOINT newVegas:Neck
				{
					OFFSET 0.000000 9.624100 -2.890100
					CHANNELS 3 Xrotation Yrotation Zrotation
					JOINT newVegas:Head
					{
						OFFSET 0.000000 14.068802 -1.351900
						CHANNELS 3 Xrotation Yrotation Zrotation
						JOINT newVegas:Hair_Back
						{
							OFFSET 0.000000 3.231903 -17.524799
							CHANNELS 3 Xrotation Yrotation Zrotation
							End Site
							{
								OFFSET 0.000000 19.849884 0.000000
							}
						}
						JOINT newVegas:Hair_Front
						{
							OFFSET 0.000000 31.260406 4.573800
							CHANNELS 3 Xrotation Yrotation Zrotation
							JOINT newVegas:Hair_Front1
							{
								OFFSET 0.000000 2.284103 11.993300
								CHANNELS 3 Xrotation Yrotation Zrotation
								JOINT newVegas:Hair_Front2
								{
									OFFSET 0.000000 2.284103 11.993300
									CHANNELS 3 Xrotation Yrotation Zrotation
									End Site
									{
										OFFSET 0.000000 12.208862 0.000000
									}
								}
							}
						}
						JOINT newVegas:Jowel
						{
							OFFSET 0.000000 -7.458206 6.864100
							CHANNELS 3 Xrotation Yrotation Zrotation
							End Site
							{
								OFFSET 0.000000 19.849884 0.000000
							}
						}
					}
				}
				JOINT newVegas:LeftShoulder
				{
					OFFSET 15.263000 10.923401 -0.547700
					CHANNELS 3 Xrotation Yrotation Zrotation
					JOINT newVegas:LeftArm
					{
						OFFSET 25.438599 -2.830597 -13.032500
						CHANNELS 3 Xrotation Yrotation Zrotation
						JOINT newVegas:LeftForeArm
						{
							OFFSET 29.960503 0.000000 0.000000
							CHANNELS 3 Xrotation Yrotation Zrotation
							JOINT newVegas:LeftHand
							{
								OFFSET 27.849251 0.000000 0.000000
								CHANNELS 3 Xrotation Yrotation Zrotation
								JOINT newVegas:LeftHandThumb1
								{
									OFFSET 4.487587 -3.305161 6.305391
									CHANNELS 3 Xrotation Yrotation Zrotation
									JOINT newVegas:LeftHandThumb2
									{
										OFFSET 5.480453 -3.164139 3.164143
										CHANNELS 3 Xrotation Yrotation Zrotation
										JOINT newVegas:LeftHandThumb3
										{
											OFFSET 5.159721 -2.978973 2.978967
											CHANNELS 3 Xrotation Yrotation Zrotation
											End Site
											{
												OFFSET 2.494507 5.926697 1.738678
											}
										}
									}
								}
								JOINT newVegas:LeftHandIndex1
								{
									OFFSET 18.578728 -0.527832 5.208049
									CHANNELS 3 Xrotation Yrotation Zrotation
									JOINT newVegas:LeftHandIndex2
									{
										OFFSET 3.192009 0.000000 0.000000
										CHANNELS 3 Xrotation Yrotation Zrotation
										JOINT newVegas:LeftHandIndex3
										{
											OFFSET 3.835129 0.000000 0.000000
											CHANNELS 3 Xrotation Yrotation Zrotation
											End Site
											{
												OFFSET -0.034599 3.816971 0.371180
											}
										}
									}
								}
								JOINT newVegas:LeftHandMiddle1
								{
									OFFSET 18.476105 0.000000 0.000000
									CHANNELS 3 Xrotation Yrotation Zrotation
									JOINT newVegas:LeftHandMiddle2
									{
										OFFSET 3.324875 0.000000 0.000000
										CHANNELS 3 Xrotation Yrotation Zrotation
										JOINT newVegas:LeftHandMiddle3
										{
											OFFSET 4.596550 0.000000 0.000000
											CHANNELS 3 Xrotation Yrotation Zrotation
											End Site
											{
												OFFSET 0.057701 4.578827 0.399218
											}
										}
									}
								}
								JOINT newVegas:LeftHandRing1
								{
									OFFSET 17.732719 0.121887 -4.201567
									CHANNELS 3 Xrotation Yrotation Zrotation
									JOINT newVegas:LeftHandRing2
									{
										OFFSET 2.733170 0.000000 0.000000
										CHANNELS 3 Xrotation Yrotation Zrotation
										JOINT newVegas:LeftHandRing3
										{
											OFFSET 3.178268 0.000000 0.000000
											CHANNELS 3 Xrotation Yrotation Zrotation
											End Site
											{
												OFFSET 0.119102 3.170624 0.185394
											}
										}
									}
								}
								JOINT newVegas:LeftHandPinky1
								{
									OFFSET 15.989624 -0.606689 -7.535461
									CHANNELS 3 Xrotation Yrotation Zrotation
									JOINT newVegas:LeftHandPinky2
									{
										OFFSET 2.538986 0.000000 0.000000
										CHANNELS 3 Xrotation Yrotation Zrotation
										JOINT newVegas:LeftHandPinky3
										{
											OFFSET 2.593102 0.000000 0.000000
											CHANNELS 3 Xrotation Yrotation Zrotation
											End Site
											{
												OFFSET -0.150902 2.584198 0.152708
											}
										}
									}
								}
							}
							JOINT newVegas:Left_Sleeve
							{
								OFFSET 0.267448 -0.649796 0.577675
								CHANNELS 3 Xrotation Yrotation Zrotation
								End Site
								{
									OFFSET 0.000000 15.991241 0.000000
								}
							}
							JOINT newVegas:Left_CapeC
							{
								OFFSET 15.715958 -8.608795 -6.935905
								CHANNELS 3 Xrotation Yrotation Zrotation
								JOINT newVegas:Left_CapeC1
								{
									OFFSET 0.000000 -8.688499 0.000000
									CHANNELS 3 Xrotation Yrotation Zrotation
									End Site
									{
										OFFSET 0.000000 8.688499 0.000000
									}
								}
							}
						}
						JOINT newVegas:Left_CapeB
						{
							OFFSET 26.118385 -8.608795 -7.079235
							CHANNELS 3 Xrotation Yrotation Zrotation
							JOINT newVegas:Left_CapeB1
							{
								OFFSET 0.000000 -8.688499 0.000000
								CHANNELS 3 Xrotation Yrotation Zrotation
								End Site
								{
									OFFSET 0.000000 8.688499 0.000000
								}
							}
						}
						JOINT newVegas:Left_CapeA
						{
							OFFSET 5.115639 -8.608795 -10.395809
							CHANNELS 3 Xrotation Yrotation Zrotation
							JOINT newVegas:Left_CapeA1
							{
								OFFSET 0.000000 -8.688499 0.000000
								CHANNELS 3 Xrotation Yrotation Zrotation
								End Site
								{
									OFFSET 0.000000 8.688499 0.000000
								}
							}
						}
					}
				}
				JOINT newVegas:RightShoulder
				{
					OFFSET -15.263000 10.923401 -0.547700
					CHANNELS 3 Xrotation Yrotation Zrotation
					JOINT newVegas:RightArm
					{
						OFFSET -25.438599 -2.830597 -13.032500
						CHANNELS 3 Xrotation Yrotation Zrotation
						JOINT newVegas:RightForeArm
						{
							OFFSET -29.960503 0.000000 0.000000
							CHANNELS 3 Xrotation Yrotation Zrotation
							JOINT newVegas:RightHand
							{
								OFFSET -27.849251 0.000000 0.000000
								CHANNELS 3 Xrotation Yrotation Zrotation
								JOINT newVegas:RightHandThumb1
								{
									OFFSET -4.487587 -3.305161 6.305391
									CHANNELS 3 Xrotation Yrotation Zrotation
									JOINT newVegas:RightHandThumb2
									{
										OFFSET -5.480453 -3.164139 3.164143
										CHANNELS 3 Xrotation Yrotation Zrotation
										JOINT newVegas:RightHandThumb3
										{
											OFFSET -5.159721 -2.978973 2.978967
											CHANNELS 3 Xrotation Yrotation Zrotation
											End Site
											{
												OFFSET -2.494507 5.926697 1.738678
											}
										}
									}
								}
								JOINT newVegas:RightHandIndex1
								{
									OFFSET -18.578728 -0.527832 5.208049
									CHANNELS 3 Xrotation Yrotation Zrotation
									JOINT newVegas:RightHandIndex2
									{
										OFFSET -3.192009 0.000000 0.000000
										CHANNELS 3 Xrotation Yrotation Zrotation
										JOINT newVegas:RightHandIndex3
										{
											OFFSET -3.835129 0.000000 0.000000
											CHANNELS 3 Xrotation Yrotation Zrotation
											End Site
											{
												OFFSET 0.034599 3.816971 0.371180
											}
										}
									}
								}
								JOINT newVegas:RightHandMiddle1
								{
									OFFSET -18.476105 0.000000 0.000000
									CHANNELS 3 Xrotation Yrotation Zrotation
									JOINT newVegas:RightHandMiddle2
									{
										OFFSET -3.324875 0.000000 0.000000
										CHANNELS 3 Xrotation Yrotation Zrotation
										JOINT newVegas:RightHandMiddle3
										{
											OFFSET -4.596550 0.000000 0.000000
											CHANNELS 3 Xrotation Yrotation Zrotation
											End Site
											{
												OFFSET -0.057701 4.578827 0.399218
											}
										}
									}
								}
								JOINT newVegas:RightHandRing1
								{
									OFFSET -17.732719 0.121887 -4.201567
									CHANNELS 3 Xrotation Yrotation Zrotation
									JOINT newVegas:RightHandRing2
									{
										OFFSET -2.733170 0.000000 0.000000
										CHANNELS 3 Xrotation Yrotation Zrotation
										JOINT newVegas:RightHandRing3
										{
											OFFSET -3.178268 0.000000 0.000000
											CHANNELS 3 Xrotation Yrotation Zrotation
											End Site
											{
												OFFSET -0.119102 3.170624 0.185394
											}
										}
									}
								}
								JOINT newVegas:RightHandPinky1
								{
									OFFSET -15.989624 -0.606689 -7.535461
									CHANNELS 3 Xrotation Yrotation Zrotation
									JOINT newVegas:RightHandPinky2
									{
										OFFSET -2.538986 0.000000 0.000000
										CHANNELS 3 Xrotation Yrotation Zrotation
										JOINT newVegas:RightHandPinky3
										{
											OFFSET -2.593102 0.000000 0.000000
											CHANNELS 3 Xrotation Yrotation Zrotation
											End Site
											{
												OFFSET 0.150902 2.584198 0.152708
											}
										}
									}
								}
							}
							JOINT newVegas:Right_CapeC
							{
								OFFSET -15.715958 -8.608795 -6.935905
								CHANNELS 3 Xrotation Yrotation Zrotation
								JOINT newVegas:Right_CapeC1
								{
									OFFSET 0.000000 -8.688499 0.000000
									CHANNELS 3 Xrotation Yrotation Zrotation
									End Site
									{
										OFFSET 0.000000 8.688499 0.000000
									}
								}
							}
							JOINT newVegas:Right_Sleeve
							{
								OFFSET -0.267448 -0.649994 0.577675
								CHANNELS 3 Xrotation Yrotation Zrotation
								End Site
								{
									OFFSET 0.000000 15.991302 0.000000
								}
							}
						}
						JOINT newVegas:Right_CapeA
						{
							OFFSET -5.115540 -8.608795 -10.395824
							CHANNELS 3 Xrotation Yrotation Zrotation
							JOINT newVegas:Right_CapeA1
							{
								OFFSET 0.000000 -8.688499 0.000000
								CHANNELS 3 Xrotation Yrotation Zrotation
								End Site
								{
									OFFSET 0.000000 8.688499 0.000000
								}
							}
						}
						JOINT newVegas:Right_CapeB
						{
							OFFSET -26.118187 -8.608795 -7.079266
							CHANNELS 3 Xrotation Yrotation Zrotation
							JOINT newVegas:Right_CapeB1
							{
								OFFSET 0.000000 -8.688499 0.000000
								CHANNELS 3 Xrotation Yrotation Zrotation
								End Site
								{
									OFFSET 0.000000 8.688499 0.000000
								}
							}
						}
					}
				}
				JOINT newVegas:Left_Collar
				{
					OFFSET 18.625099 8.655502 8.828100
					CHANNELS 3 Xrotation Yrotation Zrotation
					JOINT newVegas:Left_Collar1
					{
						OFFSET 14.783401 10.540405 -1.259500
						CHANNELS 3 Xrotation Yrotation Zrotation
						End Site
						{
							OFFSET 0.000000 18.199875 0.000000
						}
					}
				}
				JOINT newVegas:Collar_Back
				{
					OFFSET 0.000000 15.630707 -20.132601
					CHANNELS 3 Xrotation Yrotation Zrotation
					End Site
					{
						OFFSET 0.000000 22.523010 0.000000
					}
				}
				JOINT newVegas:Left_Peck
				{
					OFFSET 17.239599 -5.132599 25.482599
					CHANNELS 3 Xrotation Yrotation Zrotation
					End Site
					{
						OFFSET 0.000000 22.523010 0.000000
					}
				}
				JOINT newVegas:Right_Peck
				{
					OFFSET -17.239599 -5.132202 25.482599
					CHANNELS 3 Xrotation Yrotation Zrotation
					End Site
					{
						OFFSET 0.000000 22.523010 0.000000
					}
				}
				JOINT newVegas:Right_Collar
				{
					OFFSET -18.625099 8.655792 8.828100
					CHANNELS 3 Xrotation Yrotation Zrotation
					JOINT newVegas:Right_Collar1
					{
						OFFSET -14.783401 10.539993 -1.259500
						CHANNELS 3 Xrotation Yrotation Zrotation
						End Site
						{
							OFFSET 0.000000 18.199631 0.000000
						}
					}
				}
			}
		}
		JOINT newVegas:Belly
		{
			OFFSET 0.000000 -6.540398 9.014299
			CHANNELS 3 Xrotation Yrotation Zrotation
			End Site
			{
				OFFSET 0.000000 11.566666 0.000000
			}
		}
	}
	JOINT newVegas:ElvisFacialAnim_Joint
	{
		OFFSET 1.000000 -95.330101 -8.825800
		CHANNELS 3 Xrotation Yrotation Zrotation
		End Site
		{
			OFFSET 0.000000 35.315800 0.000000
		}
	}
}
MOTION
Frames: 4
Frame Time: 0.033333
-5.313270 77.846619 0.367333 7.646479 -40.631808 6.903400 -0.000000 -0.000001 -0.000000 -72.698136 19.977806 45.895521 50.273037 -15.670648 3.741091 10.367288 3.891474 -11.399179 -0.000000 -0.000000 -0.000000 -0.000000 0.000000 0.000001 -28.200835 -1.422355 -30.856507 63.782226 -2.707179 -3.185744 -37.182641 -4.212593 30.147851 -0.000000 0.000003 0.000000 -0.000003 0.000000 0.000000 17.314678 -0.031433 -3.085611 5.957907 4.103363 -8.138446 -5.611747 5.349235 -6.662805 -3.797300 3.913277 -0.876944 -3.797277 3.913266 -0.876954 0.000001 0.000000 0.000001 -3.797291 3.913264 -0.876947 -3.797288 3.913277 -0.876946 -0.000000 -0.000000 -0.000000 0.000001 0.000000 0.000000 -0.326148 -6.423740 -10.369860 -11.648948 2.388126 -36.557344 3.480941 -35.104567 -0.610748 1.165929 16.392282 9.954438 20.842056 -6.067080 13.395602 1.651547 14.673336 -8.645301 0.000003 -0.000001 -0.000003 1.465563 3.050750 -16.725928 -0.199788 -1.283189 -29.919036 -0.000001 -0.000000 0.000002 2.918450 6.012829 -30.235499 -0.136166 -2.114024 -38.254093 -0.000001 -0.000000 -0.000001 2.378912 5.898217 -36.130314 -1.236895 -1.588421 -41.126727 -0.000003 0.000001 0.000001 1.423803 4.895698 -41.249882 -1.188110 -1.169631 -35.732360 -0.000004 -0.000005 -0.000001 -0.000002 -0.000003 0.000001 -0.000002 -0.000003 0.000001 -0.000003 -0.000003 0.000001 0.000001 0.000001 0.000003 0.000001 0.000001 -0.000000 0.000001 0.000001 0.000003 0.000000 0.000002 0.000002 -1.836516 14.548334 4.922095 -24.714198 -30.863320 44.949034 -23.408225 52.106970 38.602091 6.874858 25.245066 -16.938454 55.149505 18.649569 -29.698298 -0.442551 -14.180555 7.313167 -0.000000 -0.000001 0.000001 5.673400 7.585007 36.844144 1.050452 3.824506 68.900271 -0.000002 0.000004 0.000003 -0.125722 1.886095 45.000749 -1.169039 3.204679 68.417663 0.000001 0.000001 0.000003 -5.312036 1.216672 58.508828 -0.745208 1.667616 48.011275 0.000000 0.000000 0.000004 -7.756826 -9.376456 47.264011 -0.526053 1.541595 45.600559 -0.000001 0.000002 -0.000005 0.000001 0.000000 -0.000000 0.000001 0.000000 0.000001 0.000001 0.000000 0.000001 -0.000000 0.000001 0.000002 -0.000000 0.000002 0.000001 -0.000000 0.000001 0.000002 0.000000 0.000002 0.000003 -0.000003 0.000000 0.000000 -0.000003 0.000000 0.000000 -0.000003 0.000000 0.000000 -0.000003 0.000000 0.000000 -0.000003 0.000000 0.000000 -0.000003 0.000000 0.000000 -0.000003 0.000000 0.000000 -0.000000 0.000001 -0.000001 -0.000000 -0.000001 -0.000000 
-5.389737 77.797997 0.095315 8.826601 -42.096372 8.555590 -0.000000 -0.000002 0.000000 -72.278189 20.779105 46.558193 49.355606 -15.341624 3.283166 10.325449 3.856728 -12.079675 0.000000 0.000000 -0.000000 -0.000001 0.000001 -0.000000 -30.565219 0.201493 -30.975123 64.999284 -1.620736 -3.691290 -37.090837 -4.423952 29.528923 -0.000000 0.000003 0.000000 0.000000 -0.000001 -0.000001 16.819059 0.361105 -2.553959 5.936026 4.303554 -8.024483 -5.687268 5.488233 -6.571334 -3.732186 3.777695 -0.784581 -3.732187 3.777697 -0.784581 0.000000 -0.000001 -0.000000 -3.732188 3.777699 -0.784582 -3.732113 3.777697 -0.784585 0.000000 0.000000 0.000000 0.000000 -0.000001 -0.000000 -0.444466 -7.385145 -9.706681 -11.461486 2.363559 -36.771000 -0.716330 -35.635433 -2.863981 1.437873 14.071568 9.126744 20.816362 -6.102414 13.395963 1.622109 14.638274 -8.640093 -0.000003 -0.000000 -0.000008 1.411325 2.969619 -16.550409 -0.194987 -1.274076 -29.656251 0.000002 -0.000000 -0.000000 2.896552 5.999468 -29.969354 -0.129414 -2.104089 -37.991845 0.000002 0.000000 -0.000003 2.387389 5.911060 -35.900874 -1.229747 -1.579289 -40.895908 0.000002 0.000001 -0.000002 1.431666 4.903803 -41.053600 -1.182163 -1.162155 -35.535244 -0.000000 -0.000003 -0.000003 -0.000002 -0.000003 0.000002 -0.000002 -0.000003 0.000002 -0.000003 -0.000002 0.000002 -0.000002 0.000000 0.000001 -0.000001 -0.000001 -0.000002 -0.000002 0.000000 0.000001 -0.000002 0.000001 0.000001 -2.061458 15.087195 4.655004 -22.923901 -29.726691 45.861848 -26.404890 53.696567 41.408978 8.548599 23.021892 -18.229794 55.149509 18.649565 -29.698298 -0.442552 -14.180557 7.313168 0.000003 -0.000006 -0.000001 5.673397 7.585007 36.844137 1.050453 3.824506 68.900271 0.000001 -0.000000 -0.000003 -0.125724 1.886094 45.000749 -1.169038 3.204682 68.417663 0.000002 0.000000 -0.000001 -5.312035 1.216672 58.508828 -0.745210 1.667616 48.011271 0.000002 0.000002 0.000002 -7.756834 -9.376458 47.264001 -0.526053 1.541597 45.600563 -0.000001 -0.000000 0.000002 -0.000002 0.000003 0.000002 -0.000001 0.000001 0.000003 -0.000002 0.000003 0.000003 0.000002 0.000002 0.000001 0.000002 0.000003 0.000001 0.000002 0.000002 0.000001 0.000003 0.000003 0.000003 0.000001 0.000001 -0.000000 0.000001 0.000001 -0.000000 0.000001 0.000001 -0.000000 0.000001 0.000001 -0.000000 0.000001 0.000001 -0.000000 0.000001 0.000001 -0.000000 0.000001 0.000001 -0.000000 -0.000001 -0.000002 0.000000 -0.000000 -0.000002 0.000000 
-5.415257 77.666313 0.012656 9.804708 -43.341652 9.904741 0.000000 -0.000001 -0.000000 -71.673437 21.223339 46.736068 47.977554 -17.712905 3.180845 10.346336 3.434840 -13.590231 0.000000 -0.000001 0.000000 -0.000001 0.000001 0.000000 -32.362519 1.615907 -31.058475 65.966049 -0.609853 -4.127781 -37.012945 -4.732049 29.111383 0.000000 0.000000 0.000000 0.000001 0.000003 0.000000 16.331129 0.751577 -1.974302 5.961126 4.510122 -7.950024 -5.714172 5.639850 -6.516074 -3.669569 3.623830 -0.646880 -3.669568 3.623835 -0.646881 -0.000000 0.000002 -0.000001 -3.669506 3.623830 -0.646883 -3.669579 3.623839 -0.646879 0.000001 -0.000000 -0.000000 -0.000000 0.000002 -0.000001 -0.537227 -7.830293 -9.170483 -11.791920 1.689923 -37.171061 -3.077132 -36.431177 -4.608138 1.536159 12.130735 10.078853 20.768363 -6.170597 13.394140 1.567087 14.569929 -8.629629 -0.000001 -0.000003 0.000000 1.308952 2.813421 -16.214736 -0.184526 -1.256436 -29.153068 0.000000 -0.000001 -0.000000 2.855280 5.973688 -29.459794 -0.116919 -2.086352 -37.489611 -0.000002 -0.000001 -0.000003 2.404349 5.936727 -35.461731 -1.217273 -1.563864 -40.453923 0.000001 -0.000000 -0.000002 1.444320 4.920288 -40.677697 -1.172332 -1.148789 -35.157811 0.000000 -0.000005 -0.000001 0.000000 0.000001 0.000001 0.000000 0.000001 0.000001 -0.000001 0.000001 0.000001 -0.000000 -0.000003 -0.000001 0.000000 -0.000002 -0.000003 -0.000000 -0.000003 -0.000001 -0.000001 -0.000002 -0.000002 -2.344472 15.758023 4.764892 -21.103415 -28.811189 46.840495 -28.403208 55.111441 42.876536 9.832699 21.356584 -19.138141 55.149509 18.649563 -29.698305 -0.442551 -14.180556 7.313164 0.000001 -0.000007 -0.000001 5.673403 7.585006 36.844134 1.050450 3.824504 68.900271 -0.000003 0.000001 0.000000 -0.125720 1.886094 45.000742 -1.169039 3.204681 68.417663 0.000002 -0.000000 -0.000003 -5.312031 1.216673 58.508828 -0.745208 1.667615 48.011268 -0.000001 -0.000003 -0.000000 -7.756829 -9.376459 47.264001 -0.526053 1.541597 45.600566 -0.000002 0.000003 0.000002 -0.000000 0.000000 -0.000000 -0.000000 -0.000002 0.000004 -0.000000 -0.000000 0.000001 -0.000003 0.000002 -0.000000 -0.000002 0.000002 -0.000001 -0.000003 0.000002 -0.000000 -0.000002 0.000002 0.000001 0.000002 -0.000001 -0.000000 0.000002 -0.000001 -0.000000 0.000002 -0.000001 -0.000000 0.000002 -0.000001 -0.000000 0.000002 -0.000001 -0.000000 0.000002 -0.000001 -0.000000 0.000002 -0.000001 -0.000000 -0.000000 0.000001 -0.000000 0.000000 -0.000001 -0.000000 
-5.420905 77.492546 0.131472 10.566614 -44.365791 10.944737 -0.000000 -0.000001 -0.000000 -70.851205 21.346081 46.258204 46.744169 -21.573294 3.699651 9.931443 3.162152 -15.737700 -0.000000 0.000001 -0.000000 -0.000000 -0.000000 0.000001 -33.597963 2.711154 -31.204095 66.618134 0.357731 -4.504409 -36.964888 -5.079001 28.870260 -0.000000 0.000000 0.000000 0.000001 -0.000003 0.000001 15.874429 1.130026 -1.200019 5.980355 4.686933 -7.865324 -5.747842 5.758958 -6.448897 -3.521253 3.504933 -0.614176 -3.521256 3.504931 -0.614176 0.000001 0.000002 -0.000000 -3.521264 3.504957 -0.614178 -3.521253 3.504940 -0.614176 0.000001 -0.000001 -0.000000 0.000001 0.000002 -0.000000 -0.629785 -8.284821 -8.630917 -12.355358 0.767605 -37.996540 -5.343750 -37.529478 -6.400725 1.575268 11.593628 11.123607 20.699360 -6.267873 13.392328 1.489557 14.471318 -8.616820 0.000004 -0.000004 -0.000001 1.165811 2.588059 -15.735050 -0.168394 -1.227640 -28.433118 -0.000003 -0.000001 0.000001 2.797793 5.936372 -28.730620 -0.099402 -2.061669 -36.770706 0.000000 0.000001 -0.000004 2.431431 5.974576 -34.833804 -1.198088 -1.542440 -39.821584 0.000001 0.000001 -0.000001 1.466347 4.947315 -40.140397 -1.158984 -1.130060 -34.617680 0.000002 -0.000003 0.000002 0.000001 -0.000000 0.000001 0.000001 -0.000000 0.000001 0.000000 -0.000000 0.000001 -0.000002 -0.000001 -0.000000 -0.000002 -0.000002 -0.000001 -0.000002 -0.000001 -0.000000 -0.000003 -0.000001 -0.000000 -2.653568 16.396294 4.998055 -19.366322 -28.141373 47.711122 -28.935413 56.359238 42.522524 10.489826 20.349746 -19.262692 55.149512 18.649565 -29.698301 -0.442552 -14.180558 7.313166 0.000001 0.000001 0.000001 5.673398 7.585007 36.844137 1.050454 3.824503 68.900271 -0.000002 0.000001 -0.000001 -0.125723 1.886090 45.000749 -1.169042 3.204676 68.417663 0.000003 0.000001 -0.000002 -5.312034 1.216671 58.508828 -0.745209 1.667615 48.011271 0.000001 -0.000001 0.000001 -7.756830 -9.376463 47.264007 -0.526053 1.541595 45.600559 -0.000001 0.000003 0.000001 -0.000002 0.000001 -0.000003 -0.000000 0.000000 0.000002 -0.000002 0.000000 -0.000002 0.000002 0.000001 -0.000000 0.000003 0.000002 -0.000001 0.000002 0.000001 -0.000000 0.000003 0.000002 0.000001 0.000001 -0.000000 -0.000000 0.000001 -0.000000 -0.000000 0.000001 -0.000000 -0.000000 0.000001 -0.000000 -0.000000 0.000001 -0.000000 -0.000000 0.000001 -0.000000 -0.000000 0.000001 -0.000000 -0.000000 -0.000003 0.000001 0.000001 -0.000000 -0.000001 -0.000000 
